<svg xmlns="http://www.w3.org/2000/svg" version="1.1" xmlns:xlink="http://www.w3.org/1999/xlink" width="32" height="32"><svg width="32" height="32" viewBox="0 0 32 32" fill="none" xmlns="http://www.w3.org/2000/svg">
<path d="M10.1792 19.8709C9.88 20.4202 9.09104 20.4195 8.79283 19.8696L0.276212 4.16505C-0.00886734 3.63936 0.371732 3 0.969741 3L18.0399 3C18.6386 3 19.0191 3.64058 18.7328 4.16631L10.1792 19.8709Z" fill="#9EE5E3"></path>
<path d="M23.2798 3L31.0234 3C31.6298 3 32.0095 3.65558 31.7078 4.18154L16.5498 30.6036C16.2466 31.1321 15.4843 31.1321 15.1811 30.6037L11.3093 23.8551C11.1698 23.612 11.1698 23.3131 11.3093 23.0699L22.5955 3.39636C22.7361 3.1512 22.9972 3 23.2798 3Z" fill="#A0A0E6" fill-opacity="0.4"></path>
</svg><style>@media (prefers-color-scheme: light) { :root { filter: none; } }
@media (prefers-color-scheme: dark) { :root { filter: none; } }
</style></svg>