<svg fill="none" xmlns="http://www.w3.org/2000/svg" viewBox="0 0 76 28">
  <path d="M15.5 7.47c.1-.17.28-.27.47-.27h5.36c.42 0 .68.45.47.81l-10.48 18.2a.55.55 0 0 1-.95 0L7.7 21.58a.54.54 0 0 1 0-.54l7.8-13.56Z" fill="#A0A0E6" fill-opacity=".15"/>
  <path d="M6.91 18.82a.55.55 0 0 1-.95 0L.06 8a.55.55 0 0 1 .49-.8h11.8c.41 0 .68.44.48.8L6.9 18.82Z" fill="#9EE5E3"/>
  <path d="M24.18 12.63c0-.3.24-.54.54-.54h4.91c.3 0 .55.24.55.54V26.5c0 .3-.25.54-.55.54h-4.9a.54.54 0 0 1-.55-.54V12.63Z" fill="#A0A0E6" fill-opacity=".15"/>
  <path d="M30.18 7.47c0-.3-.25-.55-.55-.55h-4.9c-.3 0-.55.25-.55.55v4.9c0 .3.24.53.54.53h4.91c.3 0 .55-.24.55-.54v-4.9Z" fill="#E97CE2"/>
  <path fill-rule="evenodd" clip-rule="evenodd" d="M65.64 7.34a10.35 10.35 0 0 1 10.3 11.5.53.53 0 0 1-.53.46H60.88c-.37 0-.63.35-.48.68a5.73 5.73 0 0 0 9.57 1.43c.1-.13.26-.2.43-.2h4.2c.38 0 .64.37.48.71a10.37 10.37 0 0 1-19.8-4.25c0-5.7 4.63-10.33 10.36-10.33Zm0 4.62a5.7 5.7 0 0 0-4.54 2.23c-.26.32 0 .76.41.76h8.25c.41 0 .67-.44.41-.76a5.72 5.72 0 0 0-4.53-2.23ZM37.54 0c.3 0 .55.24.55.54v7.12c0 .41.44.68.82.51a10.35 10.35 0 0 1 14.45 9.5 10.36 10.36 0 0 1-20.7.77l-.02-.13V.54c0-.3.24-.54.54-.54h4.36ZM43 11.96a5.72 5.72 0 1 0-.02 11.44A5.72 5.72 0 0 0 43 11.96Z" fill="#A0A0E6" fill-opacity=".15"/>
  <path d="M48.73 17.67a5.72 5.72 0 1 1-11.44-.02 5.72 5.72 0 0 1 11.44.02Z" fill="#6868DC"/>
</svg>
